<svg width="372" height="152" viewBox="0 0 372 152" fill="none" xmlns="http://www.w3.org/2000/svg">
<g clip-path="url(#clip0_88_2837)">
<rect width="372" height="152" rx="8" fill="#8CD7FB"/>
<mask id="mask0_88_2837" style="mask-type:alpha" maskUnits="userSpaceOnUse" x="212" y="-24" width="200" height="200">
<rect x="212" y="-24" width="200" height="200" fill="#3FBCF8"/>
</mask>
<g mask="url(#mask0_88_2837)">
<path d="M312 151C292.833 151 276.132 144.646 261.896 131.938C247.66 119.229 239.5 103.361 237.417 84.3333H254.5C256.444 98.7778 262.868 110.722 273.771 120.167C284.674 129.611 297.417 134.333 312 134.333C328.25 134.333 342.035 128.674 353.354 117.354C364.674 106.035 370.333 92.25 370.333 76C370.333 59.75 364.674 45.9653 353.354 34.6458C342.035 23.3264 328.25 17.6667 312 17.6667C302.417 17.6667 293.458 19.8889 285.125 24.3333C276.792 28.7778 269.778 34.8889 264.083 42.6667H287V59.3333H237V9.33333H253.667V28.9167C260.75 20.0278 269.396 13.1528 279.604 8.29167C289.812 3.43056 300.611 1 312 1C322.417 1 332.174 2.97917 341.271 6.9375C350.368 10.8958 358.285 16.2431 365.021 22.9792C371.757 29.7153 377.104 37.6319 381.062 46.7292C385.021 55.8264 387 65.5833 387 76C387 86.4167 385.021 96.1736 381.062 105.271C377.104 114.368 371.757 122.285 365.021 129.021C358.285 135.757 350.368 141.104 341.271 145.062C332.174 149.021 322.417 151 312 151ZM335.333 111L303.667 79.3333V34.3333H320.333V72.6667L347 99.3333L335.333 111Z" fill="#3FBCF8"/>
</g>
</g>
<defs>
<clipPath id="clip0_88_2837">
<rect width="372" height="152" rx="8" fill="white"/>
</clipPath>
</defs>
</svg>
