<svg width="372" height="152" viewBox="0 0 372 152" fill="none" xmlns="http://www.w3.org/2000/svg">
<g clip-path="url(#clip0_88_2940)">
<rect width="372" height="152" rx="8" fill="#455BB6" fill-opacity="0.6"/>
<mask id="mask0_88_2940" style="mask-type:alpha" maskUnits="userSpaceOnUse" x="202" y="0" width="200" height="200">
<rect x="202" width="200" height="200" fill="#D9D9D9"/>
</mask>
<g mask="url(#mask0_88_2940)">
<path d="M300.958 166.667C301.514 166.667 302.07 166.528 302.625 166.25C303.181 165.972 303.597 165.695 303.875 165.417L372.208 97.0834C373.875 95.4168 375.09 93.5418 375.854 91.4584C376.618 89.3751 377 87.2918 377 85.2084C377 82.9862 376.618 80.8681 375.854 78.8543C375.09 76.8404 373.875 75.0695 372.208 73.5418L336.792 38.1251C335.264 36.4584 333.493 35.2431 331.479 34.4792C329.465 33.7154 327.347 33.3334 325.125 33.3334C323.042 33.3334 320.958 33.7154 318.875 34.4792C316.792 35.2431 314.917 36.4584 313.25 38.1251L310.958 40.4168L326.375 56.0418C328.458 57.9862 329.986 60.2084 330.958 62.7084C331.931 65.2084 332.417 67.8473 332.417 70.6251C332.417 76.4584 330.438 81.3543 326.479 85.3126C322.521 89.2709 317.625 91.2501 311.792 91.2501C309.014 91.2501 306.34 90.764 303.771 89.7918C301.202 88.8195 298.945 87.3612 297 85.4168L281.375 70.0001L244.917 106.458C244.5 106.875 244.188 107.326 243.979 107.813C243.771 108.299 243.667 108.82 243.667 109.375C243.667 110.486 244.083 111.493 244.917 112.396C245.75 113.299 246.722 113.75 247.833 113.75C248.389 113.75 248.945 113.611 249.5 113.333C250.056 113.056 250.472 112.778 250.75 112.5L279.083 84.1668L290.75 95.8334L262.625 124.167C262.208 124.583 261.896 125.035 261.688 125.521C261.479 126.007 261.375 126.528 261.375 127.083C261.375 128.195 261.792 129.167 262.625 130C263.458 130.833 264.431 131.25 265.542 131.25C266.097 131.25 266.653 131.111 267.208 130.833C267.764 130.556 268.181 130.278 268.458 130L296.792 101.875L308.458 113.542L280.333 141.875C279.917 142.153 279.604 142.57 279.396 143.125C279.188 143.681 279.083 144.236 279.083 144.792C279.083 145.903 279.5 146.875 280.333 147.708C281.167 148.542 282.139 148.958 283.25 148.958C283.806 148.958 284.327 148.854 284.813 148.646C285.299 148.438 285.75 148.125 286.167 147.708L314.5 119.583L326.167 131.25L297.833 159.583C297.417 160 297.104 160.451 296.896 160.938C296.688 161.424 296.583 161.945 296.583 162.5C296.583 163.611 297.035 164.583 297.938 165.417C298.84 166.25 299.847 166.667 300.958 166.667ZM300.75 183.333C295.611 183.333 291.063 181.632 287.104 178.229C283.146 174.826 280.82 170.556 280.125 165.417C275.403 164.722 271.445 162.778 268.25 159.583C265.056 156.389 263.111 152.431 262.417 147.708C257.695 147.014 253.771 145.035 250.646 141.771C247.521 138.507 245.611 134.583 244.917 130C239.639 129.306 235.333 127.014 232 123.125C228.667 119.236 227 114.653 227 109.375C227 106.597 227.521 103.924 228.563 101.354C229.604 98.7848 231.097 96.5279 233.042 94.5834L281.375 46.4584L308.667 73.7501C308.945 74.1668 309.361 74.4793 309.917 74.6876C310.472 74.8959 311.028 75.0001 311.583 75.0001C312.833 75.0001 313.875 74.6181 314.708 73.8543C315.542 73.0904 315.958 72.0834 315.958 70.8334C315.958 70.2779 315.854 69.7223 315.646 69.1668C315.438 68.6112 315.125 68.1945 314.708 67.9168L284.917 38.1251C283.389 36.4584 281.618 35.2431 279.604 34.4792C277.59 33.7154 275.472 33.3334 273.25 33.3334C271.167 33.3334 269.083 33.7154 267 34.4792C264.917 35.2431 263.042 36.4584 261.375 38.1251L232 67.7084C230.75 68.9584 229.708 70.4168 228.875 72.0834C228.042 73.7501 227.486 75.4168 227.208 77.0834C226.931 78.7501 226.931 80.4515 227.208 82.1876C227.486 83.9237 228.042 85.5556 228.875 87.0834L216.792 99.1668C214.431 95.9723 212.695 92.4654 211.583 88.6459C210.472 84.8265 210.056 80.9723 210.333 77.0834C210.611 73.1945 211.583 69.4098 213.25 65.7293C214.917 62.0487 217.208 58.7501 220.125 55.8334L249.5 26.4584C252.833 23.264 256.549 20.8334 260.646 19.1667C264.743 17.5001 268.945 16.6667 273.25 16.6667C277.556 16.6667 281.757 17.5001 285.854 19.1667C289.952 20.8334 293.597 23.264 296.792 26.4584L299.083 28.7501L301.375 26.4584C304.708 23.264 308.424 20.8334 312.521 19.1667C316.618 17.5001 320.82 16.6667 325.125 16.6667C329.431 16.6667 333.632 17.5001 337.729 19.1667C341.827 20.8334 345.472 23.264 348.667 26.4584L383.875 61.6668C387.07 64.8612 389.5 68.5418 391.167 72.7084C392.833 76.8751 393.667 81.1112 393.667 85.4168C393.667 89.7223 392.833 93.9237 391.167 98.0209C389.5 102.118 387.07 105.764 383.875 108.958L315.542 177.083C313.597 179.028 311.34 180.556 308.771 181.667C306.202 182.778 303.528 183.333 300.75 183.333Z" fill="#455BB6"/>
</g>
</g>
<defs>
<clipPath id="clip0_88_2940">
<rect width="372" height="152" rx="8" fill="white"/>
</clipPath>
</defs>
</svg>
