<svg width="372" height="152" viewBox="0 0 372 152" fill="none" xmlns="http://www.w3.org/2000/svg">
<g clip-path="url(#clip0_88_2830)">
<rect width="372" height="152" rx="8" fill="#EB567B" fill-opacity="0.6"/>
<mask id="mask0_88_2830" style="mask-type:alpha" maskUnits="userSpaceOnUse" x="192" y="-24" width="200" height="200">
<rect x="192" y="-24" width="200" height="200" fill="#EB567B"/>
</mask>
<g mask="url(#mask0_88_2830)">
<path d="M246.167 142.667C233.528 142.667 222.729 138.292 213.771 129.542C204.812 120.792 200.333 110.097 200.333 97.4582C200.333 86.6249 203.597 76.9721 210.125 68.4999C216.653 60.0277 225.194 54.611 235.75 52.2499C239.222 39.4721 246.167 29.1249 256.583 21.2083C267 13.2916 278.806 9.33325 292 9.33325C308.25 9.33325 322.035 14.993 333.354 26.3124C344.674 37.6319 350.333 51.4166 350.333 67.6666C359.917 68.7777 367.868 72.9096 374.188 80.0624C380.507 87.2152 383.667 95.5833 383.667 105.167C383.667 115.583 380.021 124.437 372.729 131.729C365.437 139.021 356.583 142.667 346.167 142.667H300.333C295.75 142.667 291.826 141.035 288.562 137.771C285.299 134.507 283.667 130.583 283.667 126V83.0833L270.333 95.9999L258.667 84.3333L292 50.9999L325.333 84.3333L313.667 95.9999L300.333 83.0833V126H346.167C352 126 356.931 123.986 360.958 119.958C364.986 115.93 367 111 367 105.167C367 99.3333 364.986 94.4027 360.958 90.3749C356.931 86.3471 352 84.3333 346.167 84.3333H333.667V67.6666C333.667 56.1388 329.604 46.3124 321.479 38.1874C313.354 30.0624 303.528 25.9999 292 25.9999C280.472 25.9999 270.646 30.0624 262.521 38.1874C254.396 46.3124 250.333 56.1388 250.333 67.6666H246.167C238.111 67.6666 231.236 70.5138 225.542 76.2083C219.847 81.9027 217 88.7777 217 96.8333C217 104.889 219.847 111.764 225.542 117.458C231.236 123.153 238.111 126 246.167 126H267V142.667H246.167Z" fill="#EB567B"/>
</g>
</g>
<defs>
<clipPath id="clip0_88_2830">
<rect width="372" height="152" rx="8" fill="white"/>
</clipPath>
</defs>
</svg>
